# AST/ASF file generated using VICON BodyLanguage
# -----------------------------------------------
:version 1.10
:name VICON
:units
  mass 1.0
  length 0.45
  angle deg
:documentation
   .ast/.asf automatically generated from VICON data using
   VICON BodyBuilder and BodyLanguage model FoxedUp or BRILLIANT.MOD
:root
   order TX TY TZ RX RY RZ
   axis XYZ
   position 0 0 0  
   orientation 0 0 0 
:bonedata
  begin
     id 1 
     name lhipjoint
     direction 0.573633 -0.743009 0.344793 
     length 2.46257 
     axis 0 0 0  XYZ
  end
  begin
     id 2 
     name lfemur
     direction 0.34202 -0.939693 0  
     length 7.3842  
     axis 0 0 20  XYZ
    dof rx ry rz
    limits (-160.0 20.0)
           (-70.0 70.0)
           (-60.0 70.0)
  end
  begin
     id 3 
     name ltibia
     direction 0.34202 -0.939693 0   
     length 7.50407   
     axis 0 0 20   XYZ
    dof rx
    limits (-10.0 170.0)
  end
  begin
     id 4 
     name lfoot
     direction 0.110749 -0.304281 0.946123   
     length 1.95925   
     axis -90 7.62852e-016 20   XYZ
    dof rx rz
    limits (-45.0 90.0)
           (-70.0 20.0)
  end
  begin
     id 5 
     name ltoes
     direction 1.53554e-011 -4.21843e-011 1   
     length 0.978318   
     axis -90 7.62852e-016 20   XYZ
    dof rx
    limits (-90.0 20.0)
  end
  begin
     id 6 
     name rhipjoint
     direction -0.488109 -0.791693 0.367385   
     length 2.31113  
     axis 0 0 0  XYZ 
  end
  begin
     id 7 
     name rfemur
     direction -0.34202 -0.939693 0   
     length 7.40965   
     axis 0 0 -20   XYZ
    dof rx ry rz
    limits (-160.0 20.0)
           (-70.0 70.0)
           (-70.0 60.0)
  end
  begin
     id 8 
     name rtibia
     direction -0.34202 -0.939693 0   
     length 7.55548   
     axis 0 0 -20   XYZ
    dof rx
    limits (-10.0 170.0)
 end
 begin
     id 9 
     name rfoot
     direction -0.127594 -0.350561 0.927808   
     length 2.07199  
     axis -90 -7.62852e-016 -20   XYZ
    dof rx rz
    limits (-45.0 90.0)
           (-20.0 70.0)
  end
  begin
     id 10 
     name rtoes
     direction -1.53542e-011 -4.21909e-011 1   
     length 1.02667   
     axis -90 -7.62852e-016 -20   XYZ
    dof rx
    limits (-90.0 20.0)
  end
  begin
     id 11 
     name lowerback
     direction -0.0103342 0.997298 -0.0727278   
     length 2.02836   
     axis 0 0 0   XYZ
    dof rx ry rz
    limits (-20.0 45.0)
           (-30.0 30.0)
           (-30.0 30.0)
  end
  begin
     id 12 
     name upperback
     direction 0.0171146 0.999786 -0.011606   
     length 2.03179   
     axis 0 0 0   XYZ
    dof rx ry rz
    limits (-20.0 45.0)
           (-30.0 30.0)
           (-30.0 30.0)
  end
  begin
     id 13 
     name thorax
     direction 0.0216927 0.999513 0.0224343   
     length 2.03882   
     axis 0 0 0   XYZ
    dof rx ry rz
    limits (-20.0 45.0)
           (-30.0 30.0)
           (-30.0 30.0)
  end
  begin
     id 14 
     name lowerneck
     direction 0.000989287 0.993907 0.110221   
     length 1.75428   
     axis 0 0 0   XYZ
    dof rx ry rz
    limits (-20.0 45.0)
           (-30.0 30.0)
           (-30.0 30.0)
  end
  begin
     id 15 
     name upperneck
     direction -0.0172474 0.994813 -0.100253   
     length 1.77058   
     axis 0 0 0   XYZ
    dof rx ry rz
    limits (-20.0 45.0)
           (-30.0 30.0)
           (-30.0 30.0)
  end
  begin
     id 16
     name head
     direction -0.00486455 0.99894 -0.0457663  
     length 1.77427  
     axis 0 0 0   XYZ
    dof rx ry rz
    limits (-20.0 45.0)
           (-30.0 30.0)
           (-30.0 30.0)
  end
  begin
     id 17 
     name lclavicle
     direction 0.927314 0.333734 -0.169441  
     length 3.97584  
     axis 0 0 0   XYZ
    dof ry rz
    limits (-20.0 10.0)
           (0.0 20.0)
  end
  begin
     id 18 
     name lhumerus
     direction 1 -4.48965e-011 -3.25313e-028   
     length 4.76468   
     axis 180 -30 -90   XYZ
    dof rx ry rz
    limits (-60.0 90.0)
           (-90.0 90.0)
           (-90.0 90.0)
  end
  begin
     id 19
     name lradius
     direction 1 -4.48969e-011 -2.8465e-028   
     length 3.52712   
     axis -180 -30 -90   XYZ
    dof rx
    limits (-10.0 170.0)
  end
  begin
     id 20
     name lwrist
     direction 1 -4.4896e-011 -7.78665e-028   
     length 1.76356   
     axis 1.91374e-015 90 90   XYZ
    dof ry
    limits (-180.0 0.0)
 end
  begin
     id 21 
     name lhand
     direction 1 -4.48959e-011 -1.55733e-027   
     length 0.859564   
     axis 9.9371e-016 90 90   XYZ
    dof rx rz
    limits (-90.0 90.0)
           (-45.0 45.0)
  end
  begin
     id 22 
     name lfingers
     direction 1 -4.48965e-011 -3.11466e-027   
     length 0.693002   
     axis 1.98742e-015 90 90   XYZ
    dof rx
    limits (0.0 90.0)
  end
  begin
     id 23
     name lthumb
     direction 0.707107 -6.34948e-011 0.707107   
     length 0.995017   
     axis -90 45 2.85299e-015   XYZ
    dof rx rz
    limits (-45.0 45.0)
           (-45.0 45.0)
  end
  begin
     id 24 
     name rclavicle
     direction -0.899388 0.348209 -0.264294   
     length 3.68366  
     axis 0 0 0   XYZ 
    dof ry rz
    limits (-10.0 20.0)
           (-20.0 0.0)
  end
  begin
     id 25 
     name rhumerus
     direction -1 -4.48965e-011 -3.01536e-027  
     length 4.90577   
     axis 180 30 90   XYZ
    dof rx ry rz
    limits (-90.0 60.0)
           (-90.0 90.0)
           (-90.0 90.0)
  end
  begin
     id 26 
     name rradius
     direction -1 -4.48966e-011 3.93291e-027   
     length 3.42692   
     axis -180 30 90   XYZ
    dof rx
    limits (-10.0 170.0)
  end
  begin
     id 27 
     name rwrist
     direction -1 -4.48969e-011 -7.78665e-028   
     length 1.71346   
     axis 1.91374e-015 -90 -90   XYZ
    dof ry
    limits (-180.0 0.0)
  end
  begin
     id 28
     name rhand
     direction -1 -4.48967e-011 -1.55733e-027   
     length 0.740957   
     axis 9.9371e-016 -90 -90   XYZ
    dof rx rz
    limits (-90.0 90.0)
           (-45.0 45.0)
  end
  begin
     id 29
     name rfingers
     direction -1 -4.48949e-011 -3.11466e-027   
     length 0.597378   
     axis 1.98742e-015 -90 -90   XYZ
    dof rx
    limits (0.0 90.0)
  end
  begin
     id 30
     name rthumb
     direction -0.707107 -6.34931e-011 0.707107   
     length 0.857719   
     axis -90 -45 -2.85299e-015   XYZ
    dof rx rz
    limits (-45.0 45.0)
           (-45.0 45.0)
  end
:hierarchy
  begin
    root lhipjoint rhipjoint lowerback
    lhipjoint lfemur
    lfemur ltibia
    ltibia lfoot
    lfoot ltoes
    rhipjoint rfemur
    rfemur rtibia
    rtibia rfoot
    rfoot rtoes
    lowerback upperback
    upperback thorax
    thorax lowerneck lclavicle rclavicle
    lowerneck upperneck
    upperneck head
    lclavicle lhumerus
    lhumerus lradius
    lradius lwrist
    lwrist lhand lthumb
    lhand lfingers
    rclavicle rhumerus
    rhumerus rradius
    rradius rwrist
    rwrist rhand rthumb
    rhand rfingers
  end

#!OML:ASF E:\I on waltz\AllaLogoMonkeySwing\Project 1\Capture day 1\Session 1\Subject1.ASF
:FULLY-SPECIFIED
:DEGREES
140
root 0.168747 17.9908 0.512398 0.779864 6.32294 -2.48603
lowerback 7.44465 4.10161 1.55946
upperback 0.403498 5.57372 -0.454726
thorax -3.54805 2.74001 -1.90958
lowerneck 0.494204 16.3349 10.2126
upperneck 12.363 23.0121 -9.26067
head 5.92583 11.3352 -2.86455
rclavicle -8.97016e-015 -9.54166e-015
rhumerus -32.3518 -29.0414 -75.9343
rradius 23.0973
rwrist 7.64515
rhand -4.81434 -36.5269
rfingers 7.12502
rthumb 20.9718 -65.4131
lclavicle -8.97016e-015 -9.54166e-015
lhumerus -41.9009 7.38231 90.1222
lradius 39.075
lwrist 4.82348
lhand 11.4467 -1.55122
lfingers 7.12502
lthumb 36.4972 24.6416
rfemur -1.12042 -4.88781 21.0212
rtibia 16.2756
rfoot -13.8177 -12.9928
rtoes 11.9263
lfemur 1.12217 -2.27052 -16.5118
ltibia 10.7404
lfoot -13.7011 -2.79499
ltoes -25.5252
141
root 0.182397 17.9912 0.507919 0.872654 5.99448 -2.28144
lowerback 7.43103 4.04145 1.44046
upperback 0.410517 5.48189 -0.492928
thorax -3.54422 2.69612 -1.87295
lowerneck 0.108171 16.2544 9.97788
upperneck 12.9056 22.8955 -8.99779
head 6.09052 11.2571 -2.7217
rclavicle -3.77194e-014 -6.36111e-015
rhumerus -32.0894 -28.7734 -76.1498
rradius 23.286
rwrist 7.45064
rhand -4.93585 -36.6405
rfingers 7.12502
rthumb 20.855 -65.5395
lclavicle -3.77194e-014 -6.36111e-015
lhumerus -41.9509 7.41461 90.1042
lradius 38.9914
lwrist 4.4462
lhand 11.563 -1.9621
lfingers 7.12502
lthumb 36.6073 24.2029
rfemur -1.23999 -4.92227 20.6944
rtibia 16.3091
rfoot -13.7625 -12.7705
rtoes 11.8396
lfemur 1.06332 -2.13044 -16.8202
ltibia 10.7806
lfoot -13.7383 -2.63045
ltoes -25.5088
142
root 0.193795 17.9903 0.505301 0.893891 5.63111 -2.30026
lowerback 7.41593 3.9899 1.47528
upperback 0.455064 5.4176 -0.437617
thorax -3.49426 2.66506 -1.82571
lowerneck -0.179147 16.1568 9.89221
upperneck 13.3476 22.796 -9.03263
head 6.26258 11.1835 -2.69069
rclavicle 2.93704e-014 4.77083e-015
rhumerus -31.7644 -28.4823 -76.3637
rradius 23.4624
rwrist 7.20609
rhand -5.10914 -36.7789
rfingers 7.12502
rthumb 20.6885 -65.6962
lclavicle 2.93704e-014 4.77083e-015
lhumerus -41.9411 7.41301 90.1373
lradius 38.8111
lwrist 3.98749
lhand 11.2102 -2.4306
lfingers 7.12502
lthumb 36.2732 23.8183
rfemur -1.30455 -4.77377 20.6838
rtibia 16.326
rfoot -13.695 -12.633
rtoes 11.9425
lfemur 1.08887 -1.93713 -16.8224
ltibia 10.7856
lfoot -13.7364 -2.45115
ltoes -25.4905
143
root 0.204396 17.9907 0.502215 0.876884 5.26677 -2.40886
lowerback 7.44902 3.93783 1.57774
upperback 0.481403 5.36029 -0.349025
thorax -3.4868 2.63579 -1.78713
lowerneck -0.163885 16.0409 10.0467
upperneck 13.5435 22.722 -9.44549
head 6.38207 11.1288 -2.82888
rclavicle 1.0461e-014 2.78299e-015
rhumerus -31.5445 -28.133 -76.548
rradius 23.7443
rwrist 6.94313
rhand -5.27142 -36.8747
rfingers 7.12502
rthumb 20.5326 -65.8089
lclavicle 1.0461e-014 2.78299e-015
lhumerus -41.9289 7.41609 90.1687
lradius 38.6158
lwrist 3.51861
lhand 10.8495 -2.7782
lfingers 7.12502
lthumb 35.9317 23.5551
rfemur -1.33052 -4.51394 20.8091
rtibia 16.324
rfoot -13.659 -12.5514
rtoes 12.1099
lfemur 1.16914 -1.7553 -16.7036
ltibia 10.7365
lfoot -13.6473 -2.2867
ltoes -25.4103
144
root 0.213644 17.991 0.498346 0.845325 4.9139 -2.52059
lowerback 7.52675 3.87646 1.68931
upperback 0.472262 5.29223 -0.270109
thorax -3.53974 2.59971 -1.7677
lowerneck -0.0208691 15.9545 10.1444
upperneck 13.6501 22.6733 -9.7507
head 6.43505 11.0966 -2.94268
rclavicle 1.84124e-014 7.7526e-015
rhumerus -31.4993 -27.9073 -76.6328
rradius 24.0471
rwrist 6.66383
rhand -4.87533 -36.7698
rfingers 7.12502
rthumb 20.9132 -65.6625
lclavicle 1.84124e-014 7.7526e-015
lhumerus -42.0313 7.43175 90.1665
lradius 38.5209
lwrist 2.98568
lhand 10.5399 -3.05578
lfingers 7.12502
lthumb 35.6382 23.3488
rfemur -1.34216 -4.25109 20.9383
rtibia 16.3163
rfoot -13.6492 -12.4821
rtoes 12.104
lfemur 1.26673 -1.62806 -16.5825
ltibia 10.6633
lfoot -13.5536 -2.12664
ltoes -25.2862
145
root 0.223393 17.9906 0.494835 0.856543 4.58518 -2.46485
lowerback 7.56135 3.80212 1.62885
upperback 0.492422 5.18937 -0.245335
thorax -3.54981 2.54961 -1.70063
lowerneck 0.0587225 15.8928 10.2955
upperneck 13.7176 22.6581 -10.1186
head 6.50304 11.0775 -3.0727
rclavicle 4.1049e-014 -8.34896e-015
rhumerus -31.3942 -27.7333 -76.7365
rradius 24.2553
rwrist 6.26528
rhand -3.87993 -36.6322
rfingers 7.12502
rthumb 21.8693 -65.4163
lclavicle 4.1049e-014 -8.34896e-015
lhumerus -42.0914 7.43436 90.1842
lradius 38.4616
lwrist 2.42218
lhand 10.147 -3.17397
lfingers 7.12502
lthumb 35.2657 23.3196
rfemur -1.39476 -4.10487 20.8479
rtibia 16.3444
rfoot -13.6257 -12.3713
rtoes 11.9082
lfemur 1.30523 -1.45804 -16.6667
ltibia 10.6481
lfoot -13.544 -2.00916
ltoes -25.097
146
root 0.235283 17.9913 0.489498 0.89589 4.24599 -2.38036
lowerback 7.5814 3.71949 1.52872
upperback 0.543746 5.07113 -0.229303
thorax -3.52231 2.49322 -1.61641
lowerneck 0.144713 15.8193 10.6295
upperneck 13.6695 22.6617 -10.8029
head 6.59407 11.0615 -3.31837
rclavicle 4.32605e-014 1.39149e-015
rhumerus -31.13 -27.3975 -76.9829
rradius 24.4726
rwrist 5.78203
rhand -3.4449 -36.6286
rfingers 7.12502
rthumb 22.2869 -65.3634
lclavicle 4.32605e-014 1.39149e-015
lhumerus -42.0315 7.41294 90.2095
lradius 38.3541
lwrist 2.01315
lhand 9.89883 -3.22391
lfingers 7.12502
lthumb 35.0304 23.3251
rfemur -1.50175 -4.05932 20.7061
rtibia 16.4256
rfoot -13.5922 -12.2244
rtoes 11.5535
lfemur 1.2943 -1.23226 -16.7943
ltibia 10.6678
lfoot -13.5472 -1.89662
ltoes -25.0501
147
root 0.247662 17.9915 0.482349 0.907721 3.87723 -2.39559
lowerback 7.66724 3.65242 1.5399
upperback 0.590495 4.98505 -0.187668
thorax -3.52757 2.45062 -1.57556
lowerneck 0.114453 15.7494 10.7701
upperneck 13.6931 22.6416 -11.2765
head 6.67746 11.0305 -3.47204
rclavicle 3.43897e-014 1.78906e-015
rhumerus -30.8794 -26.9945 -77.2587
rradius 24.7639
rwrist 5.30001
rhand -3.71747 -36.6946
rfingers 7.12502
rthumb 22.0252 -65.4605
lclavicle 3.43897e-014 1.78906e-015
lhumerus -41.982 7.35041 90.2171
lradius 38.2567
lwrist 1.7099
lhand 9.86434 -3.47866
lfingers 7.12502
lthumb 34.9977 23.0779
rfemur -1.58516 -3.92119 20.6829
rtibia 16.4638
rfoot -13.5203 -12.0436
rtoes 11.4489
lfemur 1.32273 -1.02786 -16.8028
ltibia 10.6422
lfoot -13.4985 -1.75355
ltoes -24.9514
148
root 0.258076 17.9908 0.476157 0.925236 3.55158 -2.40404
lowerback 7.77131 3.58589 1.55137
upperback 0.603502 4.89973 -0.164561
thorax -3.5762 2.40741 -1.55666
lowerneck -0.0702003 15.711 10.6585
upperneck 13.8803 22.6063 -11.3087
head 6.75528 10.9934 -3.45095
rclavicle -3.01904e-014 -9.93923e-016
rhumerus -30.7466 -26.6177 -77.5148
rradius 25.0302
rwrist 4.82087
rhand -3.84147 -36.8499
rfingers 7.12502
rthumb 21.9062 -65.6297
lclavicle -3.01904e-014 -9.93923e-016
lhumerus -42.0126 7.21876 90.1875
lradius 38.2257
lwrist 1.47819
lhand 9.96255 -3.81425
lfingers 7.12502
lthumb 35.0908 22.7206
rfemur -1.6452 -3.65568 20.6731
rtibia 16.4334
rfoot -13.467 -11.9141
rtoes 11.8496
lfemur 1.34733 -0.912612 -16.8094
ltibia 10.6108
lfoot -13.4533 -1.60846
ltoes -24.5603
149
root 0.26698 17.9918 0.470007 1.01724 3.28652 -2.37575
lowerback 7.80314 3.49544 1.50262
upperback 0.587632 4.77654 -0.144018
thorax -3.62042 2.3463 -1.49906
lowerneck -0.217223 15.6842 10.5039
upperneck 14.028 22.5805 -11.3031
head 6.80584 10.9635 -3.41707
rclavicle 3.926e-015 -3.18055e-015
rhumerus -30.6675 -26.3491 -77.701
rradius 25.2253
rwrist 4.5877
rhand -3.83777 -36.7999
rfingers 7.12502
rthumb 21.9097 -65.5793
lclavicle 3.926e-015 -3.18055e-015
lhumerus -42.045 7.09822 90.1265
lradius 38.229
lwrist 1.19253
lhand 10.2348 -4.1172
lfingers 7.12502
lthumb 35.349 22.3566
rfemur -1.79444 -3.45691 20.6377
rtibia 16.4578
rfoot -13.461 -11.8517
rtoes 12.0042
lfemur 1.25751 -0.852435 -16.8595
ltibia 10.6336
lfoot -13.4024 -1.47036
ltoes -24.5216
150
root 0.277699 17.9924 0.464444 1.10141 2.99706 -2.4287
lowerback 7.81651 3.37829 1.5251
upperback 0.586113 4.62472 -0.0941566
thorax -3.63688 2.27062 -1.44569
lowerneck -0.275503 15.6436 10.5182
upperneck 14.0754 22.5773 -11.6011
head 6.86813 10.9416 -3.50025
rclavicle -1.54058e-015 -2.48481e-014
rhumerus -30.5746 -26.1558 -77.8651
rradius 25.3714
rwrist 4.63441
rhand -3.92228 -36.5099
rfingers 7.12502
rthumb 21.8286 -65.2988
lclavicle -1.54058e-015 -2.48481e-014
lhumerus -42.0493 7.04516 90.0258
lradius 38.2532
lwrist 0.823107
lhand 10.4982 -4.44755
lfingers 7.12502
lthumb 35.5988 21.9665
rfemur -1.9445 -3.3032 20.6861
rtibia 16.4968
rfoot -13.4358 -11.7507
rtoes 12.5177
lfemur 1.17072 -0.649501 -16.8029
ltibia 10.6648
lfoot -13.3569 -1.38739
ltoes -25.0298
